<svg width="138" height="40" viewBox="0 0 138 40" fill="none" xmlns="http://www.w3.org/2000/svg">
<path d="M132.628 0.801252C134.99 0.801252 136.912 2.685 136.912 5V35C136.912 37.315 134.99 39.1988 132.628 39.1988H5.10109C2.73928 39.1988 0.817449 37.315 0.817449 35V5C0.817449 2.685 2.73928 0.801252 5.10109 0.801252H132.628ZM132.628 2.11397e-06H5.10109C2.29676 2.11397e-06 0 2.25125 0 5V35C0 37.7487 2.29676 40 5.10109 40H132.628C135.433 40 137.729 37.7487 137.729 35V5C137.729 2.25125 135.433 2.11397e-06 132.628 2.11397e-06Z" fill="#F4F4F4"/>
<path d="M69.5122 21.7525C67.1159 21.7525 65.1584 23.54 65.1584 26.0063C65.1584 28.4525 67.1159 30.2588 69.5122 30.2588C71.9135 30.2588 73.871 28.4525 73.871 26.0063C73.871 23.54 71.9135 21.7525 69.5122 21.7525ZM69.5122 28.5838C68.1974 28.5838 67.0662 27.52 67.0662 26.0063C67.0662 24.4725 68.1974 23.4275 69.5122 23.4275C70.827 23.4275 71.9632 24.4725 71.9632 26.0063C71.9632 27.52 70.827 28.5838 69.5122 28.5838ZM60.0127 21.7525C57.6113 21.7525 55.6589 23.54 55.6589 26.0063C55.6589 28.4525 57.6113 30.2588 60.0127 30.2588C62.4127 30.2588 64.3664 28.4525 64.3664 26.0063C64.3664 23.54 62.4127 21.7525 60.0127 21.7525ZM60.0127 28.5838C58.6966 28.5838 57.5616 27.52 57.5616 26.0063C57.5616 24.4725 58.6966 23.4275 60.0127 23.4275C61.3275 23.4275 62.4586 24.4725 62.4586 26.0063C62.4586 27.52 61.3275 28.5838 60.0127 28.5838ZM48.7087 23.0563V24.8638H53.1122C52.9834 25.8738 52.639 26.6163 52.1111 27.1338C51.4683 27.7588 50.4673 28.4525 48.7087 28.4525C45.9987 28.4525 43.8767 26.3088 43.8767 23.6525C43.8767 20.9963 45.9987 18.8525 48.7087 18.8525C50.1739 18.8525 51.2401 19.4138 52.0269 20.1413L53.3264 18.8675C52.2259 17.8375 50.7618 17.0463 48.7087 17.0463C44.9925 17.0463 41.8694 20.01 41.8694 23.6525C41.8694 27.295 44.9925 30.2588 48.7087 30.2588C50.7172 30.2588 52.2259 29.6138 53.4119 28.4038C54.6272 27.2125 55.0059 25.5375 55.0059 24.185C55.0059 23.765 54.9702 23.3788 54.9065 23.0563H48.7087ZM94.9321 24.4575C94.5738 23.5063 93.4681 21.7525 91.216 21.7525C88.9843 21.7525 87.1262 23.4763 87.1262 26.0063C87.1262 28.3888 88.9651 30.2588 91.4302 30.2588C93.4235 30.2588 94.5738 29.0675 95.0469 28.3738L93.5676 27.4075C93.0741 28.115 92.402 28.5838 91.4302 28.5838C90.4649 28.5838 89.7724 28.15 89.3286 27.295L95.1323 24.9413L94.9321 24.4575ZM89.0149 25.8738C88.9651 24.2338 90.3144 23.3938 91.281 23.3938C92.0385 23.3938 92.6813 23.765 92.8955 24.2963L89.0149 25.8738ZM84.2976 30H86.2054V17.5H84.2976V30ZM81.1732 22.7H81.1095C80.681 22.2025 79.8635 21.7525 78.828 21.7525C76.655 21.7525 74.6681 23.6225 74.6681 26.02C74.6681 28.4038 76.655 30.2588 78.828 30.2588C79.8635 30.2588 80.681 29.805 81.1095 29.2925H81.1732V29.9025C81.1732 31.5288 80.2869 32.4025 78.8573 32.4025C77.6917 32.4025 76.9687 31.5775 76.6703 30.8838L75.0111 31.5625C75.4893 32.69 76.7557 34.0775 78.8573 34.0775C81.0942 34.0775 82.9816 32.7875 82.9816 29.6488V22.0113H81.1732V22.7ZM78.9912 28.5838C77.6764 28.5838 76.5759 27.505 76.5759 26.02C76.5759 24.5213 77.6764 23.4275 78.9912 23.4275C80.2869 23.4275 81.3084 24.5213 81.3084 26.02C81.3084 27.505 80.2869 28.5838 78.9912 28.5838ZM103.864 17.5H99.3012V30H101.204V25.2638H103.864C105.977 25.2638 108.05 23.765 108.05 21.3813C108.05 18.9988 105.972 17.5 103.864 17.5ZM103.914 23.525H101.204V19.2388H103.914C105.335 19.2388 106.146 20.395 106.146 21.3813C106.146 22.3488 105.335 23.525 103.914 23.525ZM115.676 21.7288C114.301 21.7288 112.871 22.3238 112.283 23.6425L113.972 24.3363C114.335 23.6425 115.004 23.4175 115.71 23.4175C116.697 23.4175 117.698 23.9988 117.714 25.025V25.1563C117.369 24.9613 116.632 24.6725 115.725 24.6725C113.907 24.6725 112.054 25.6538 112.054 27.485C112.054 29.16 113.543 30.2388 115.218 30.2388C116.498 30.2388 117.205 29.6725 117.649 29.0138H117.714V29.98H119.551V25.185C119.551 22.9688 117.863 21.7288 115.676 21.7288ZM115.446 28.5788C114.824 28.5788 113.957 28.2763 113.957 27.52C113.957 26.5525 115.038 26.1813 115.974 26.1813C116.812 26.1813 117.205 26.3625 117.714 26.6013C117.564 27.7588 116.548 28.5788 115.446 28.5788ZM126.246 22.0025L124.059 27.4213H123.994L121.733 22.0025H119.681L123.079 29.575L121.14 33.7888H123.128L128.363 22.0025H126.246ZM109.095 30H111.003V17.5H109.095V30Z" fill="#F4F4F4"/>
<path d="M10.6465 7.53869C10.3468 7.84619 10.1733 8.32494 10.1733 8.94494V31.0599C10.1733 31.6799 10.3468 32.1587 10.6465 32.4662L10.7204 32.5337L23.3635 20.1462V19.8537L10.7204 7.46619L10.6465 7.53869Z" fill="url(#paint0_linear_181_21475)"/>
<path d="M27.5727 24.2775L23.363 20.1462V19.8537L27.5778 15.7225L27.6722 15.7762L32.6636 18.56C34.0881 19.35 34.0881 20.65 32.6636 21.445L27.6722 24.2237L27.5727 24.2775Z" fill="url(#paint1_linear_181_21475)"/>
<path d="M27.6714 24.2237L23.3623 20L10.6453 32.4662C11.1184 32.9537 11.8899 33.0125 12.7673 32.525L27.6714 24.2237Z" fill="url(#paint2_linear_181_21475)"/>
<path d="M27.6714 15.7763L12.7673 7.475C11.8899 6.9925 11.1184 7.05125 10.6453 7.53875L23.3623 20L27.6714 15.7763Z" fill="url(#paint3_linear_181_21475)"/>
<defs>
<linearGradient id="paint0_linear_181_21475" x1="22.2409" y1="31.2902" x2="5.46188" y2="14.172" gradientUnits="userSpaceOnUse">
<stop stop-color="#00A0FF"/>
<stop offset="0.0066" stop-color="#00A1FF"/>
<stop offset="0.2601" stop-color="#00BEFF"/>
<stop offset="0.5122" stop-color="#00D2FF"/>
<stop offset="0.7604" stop-color="#00DFFF"/>
<stop offset="1" stop-color="#00E3FF"/>
</linearGradient>
<linearGradient id="paint1_linear_181_21475" x1="34.5185" y1="19.9986" x2="9.83241" y2="19.9986" gradientUnits="userSpaceOnUse">
<stop stop-color="#FFE000"/>
<stop offset="0.4087" stop-color="#FFBD00"/>
<stop offset="0.7754" stop-color="#FFA500"/>
<stop offset="1" stop-color="#FF9C00"/>
</linearGradient>
<linearGradient id="paint2_linear_181_21475" x1="25.3282" y1="17.7039" x2="2.57449" y2="-5.50988" gradientUnits="userSpaceOnUse">
<stop stop-color="#FF3A44"/>
<stop offset="1" stop-color="#C31162"/>
</linearGradient>
<linearGradient id="paint3_linear_181_21475" x1="7.44413" y1="39.8238" x2="17.6047" y2="29.4579" gradientUnits="userSpaceOnUse">
<stop stop-color="#32A071"/>
<stop offset="0.0685" stop-color="#2DA771"/>
<stop offset="0.4762" stop-color="#15CF74"/>
<stop offset="0.8009" stop-color="#06E775"/>
<stop offset="1" stop-color="#00F076"/>
</linearGradient>
</defs>
</svg>
