<svg xmlns="http://www.w3.org/2000/svg" viewBox="0 0 20 20" fill="none">
  <path fill="white" d="M9.32832 5.5117C7.48686 5.65013 5.70998 6.25044 4.16187 7.25716C4.3643 6.4505 4.79304 5.71848 5.3976 5.14733C6.00215 4.57618 6.75733 4.18969 7.57419 4.03338C7.79034 3.9899 8.01352 3.99574 8.22711 4.05048C8.44069 4.10521 8.63917 4.20743 8.80776 4.34952C8.97636 4.4916 9.11072 4.6699 9.20085 4.87112C9.29098 5.07234 9.33455 5.2913 9.32832 5.5117ZM17.7585 5.49637C17.5165 5.1653 17.2096 4.88703 16.8565 4.67856C16.5033 4.47009 16.1114 4.33579 15.7046 4.28387C15.6527 3.87709 15.5184 3.48516 15.3099 3.13202C15.1014 2.77888 14.8232 2.47194 14.4921 2.22995C14.3223 2.10218 14.1203 2.0242 13.9087 2.00475C13.6971 1.98529 13.4842 2.02513 13.294 2.11981C13.1037 2.21448 12.9436 2.36025 12.8315 2.54078C12.7194 2.72132 12.6598 2.92949 12.6594 3.14199V6.66291C7.65147 6.66291 4.7941 7.62025 3.30779 10.1232C4.885 10.5352 6.32378 11.3604 7.47576 12.5138C8.62773 13.6672 9.45122 15.107 9.86129 16.6847C12.3669 15.199 13.3256 12.341 13.3256 7.32912L16.8465 7.32912C17.059 7.32865 17.2672 7.26904 17.4477 7.15695C17.6282 7.04487 17.774 6.88474 17.8687 6.69449C17.9633 6.50425 18.0032 6.2914 17.9837 6.07979C17.9643 5.86818 17.8863 5.66617 17.7585 5.49637ZM14.7912 10.6602H14.4748C14.3743 11.5628 14.193 12.4547 13.9332 13.325H14.4755C16.1323 13.3763 16.6646 10.7428 14.7912 10.6602ZM8.62947 17.263C7.03057 17.7213 4.27446 18.6906 2.78015 17.2083C2.5118 16.9408 2.30386 16.6189 2.17033 16.2642C2.0368 15.9096 1.98077 15.5305 2.00602 15.1524C2.06781 13.8592 2.31022 12.581 2.72619 11.355C4.16844 11.6801 5.48879 12.4079 6.53379 13.4537C7.57879 14.4995 8.3055 15.8205 8.62947 17.263ZM5.33107 15.3236C5.33107 15.1469 5.26088 14.9775 5.13594 14.8525C5.011 14.7276 4.84155 14.6574 4.66486 14.6574C4.48817 14.6574 4.31871 14.7276 4.19378 14.8525C4.06884 14.9775 3.99865 15.1469 3.99865 15.3236C3.99865 15.5003 4.06884 15.6698 4.19378 15.7947C4.31871 15.9196 4.48817 15.9898 4.66486 15.9898C4.84155 15.9898 5.011 15.9196 5.13594 15.7947C5.26088 15.6698 5.33107 15.5003 5.33107 15.3236Z"/>
</svg>